<?xml version="1.0" encoding="UTF-8" standalone="no"?>
<!DOCTYPE svg PUBLIC "-//W3C//DTD SVG 1.1//EN"
 "http://www.w3.org/Graphics/SVG/1.1/DTD/svg11.dtd">
<!-- Generated by graphviz version 2.38.0 (20140413.2041)
 -->
<!-- Title: controllers_diagram Pages: 1 -->
<svg width="372pt" height="337pt"
 viewBox="0.00 0.00 371.72 337.00" xmlns="http://www.w3.org/2000/svg" xmlns:xlink="http://www.w3.org/1999/xlink">
<g id="graph0" class="graph" transform="scale(1 1) rotate(0) translate(115.688 207.5)">
<title>controllers_diagram</title>
<polygon fill="none" stroke="none" points="-115.688,129.5 -115.688,-207.5 256.033,-207.5 256.033,129.5 -115.688,129.5"/>
<!-- _diagram_info -->
<g id="node1" class="node"><title>_diagram_info</title>
<text text-anchor="start" x="-103.688" y="-17.1" font-family="Times,serif" font-size="13.00">Controllers diagram</text>
<text text-anchor="start" x="-103.688" y="-4.1" font-family="Times,serif" font-size="13.00">Date: Jul 23 2015 &#45; 18:33</text>
<text text-anchor="start" x="-103.688" y="8.9" font-family="Times,serif" font-size="13.00">Migration version: 20150721010959</text>
<text text-anchor="start" x="-103.688" y="21.9" font-family="Times,serif" font-size="13.00">Generated by RailRoady 1.3.1</text>
<text text-anchor="start" x="-103.688" y="34.9" font-family="Times,serif" font-size="13.00">http://railroady.prestonlee.com</text>
</g>
<!-- ApplicationController -->
<g id="node2" class="node"><title>ApplicationController</title>
<path fill="none" stroke="black" d="M68.1792,-57C68.1792,-57 183.821,-57 183.821,-57 189.821,-57 195.821,-63 195.821,-69 195.821,-69 195.821,-137 195.821,-137 195.821,-143 189.821,-149 183.821,-149 183.821,-149 68.1792,-149 68.1792,-149 62.1792,-149 56.1792,-143 56.1792,-137 56.1792,-137 56.1792,-69 56.1792,-69 56.1792,-63 62.1792,-57 68.1792,-57"/>
<text text-anchor="middle" x="126" y="-133.8" font-family="Times,serif" font-size="14.00">ApplicationController</text>
<polyline fill="none" stroke="black" points="56.1792,-127 195.821,-127 "/>
<polyline fill="none" stroke="black" points="56.1792,-103 195.821,-103 "/>
<polyline fill="none" stroke="black" points="56.1792,-79 195.821,-79 "/>
<text text-anchor="start" x="64.1792" y="-63.8" font-family="Times,serif" font-size="14.00">_layout</text>
</g>
<!-- PostsController -->
<g id="node3" class="node"><title>PostsController</title>
<path fill="none" stroke="black" d="M-57.5586,-71C-57.5586,-71 21.5586,-71 21.5586,-71 27.5586,-71 33.5586,-77 33.5586,-83 33.5586,-83 33.5586,-191 33.5586,-191 33.5586,-197 27.5586,-203 21.5586,-203 21.5586,-203 -57.5586,-203 -57.5586,-203 -63.5586,-203 -69.5586,-197 -69.5586,-191 -69.5586,-191 -69.5586,-83 -69.5586,-83 -69.5586,-77 -63.5586,-71 -57.5586,-71"/>
<text text-anchor="middle" x="-18" y="-187.8" font-family="Times,serif" font-size="14.00">PostsController</text>
<polyline fill="none" stroke="black" points="-69.5586,-181 33.5586,-181 "/>
<text text-anchor="start" x="-61.5586" y="-165.8" font-family="Times,serif" font-size="14.00">edit</text>
<text text-anchor="start" x="-61.5586" y="-151.8" font-family="Times,serif" font-size="14.00">index</text>
<text text-anchor="start" x="-61.5586" y="-137.8" font-family="Times,serif" font-size="14.00">new</text>
<text text-anchor="start" x="-61.5586" y="-123.8" font-family="Times,serif" font-size="14.00">show</text>
<polyline fill="none" stroke="black" points="-69.5586,-117 33.5586,-117 "/>
<polyline fill="none" stroke="black" points="-69.5586,-93 33.5586,-93 "/>
<text text-anchor="start" x="-61.5586" y="-77.8" font-family="Times,serif" font-size="14.00">_layout</text>
</g>
<!-- WelcomeController -->
<g id="node4" class="node"><title>WelcomeController</title>
<path fill="none" stroke="black" d="M137.967,125C137.967,125 240.033,125 240.033,125 246.033,125 252.033,119 252.033,113 252.033,113 252.033,33 252.033,33 252.033,27 246.033,21 240.033,21 240.033,21 137.967,21 137.967,21 131.967,21 125.967,27 125.967,33 125.967,33 125.967,113 125.967,113 125.967,119 131.967,125 137.967,125"/>
<text text-anchor="middle" x="189" y="36.2" font-family="Times,serif" font-size="14.00">WelcomeController</text>
<polyline fill="none" stroke="black" points="125.967,43 252.033,43 "/>
<text text-anchor="start" x="133.967" y="58.2" font-family="Times,serif" font-size="14.00">about</text>
<text text-anchor="start" x="133.967" y="72.2" font-family="Times,serif" font-size="14.00">index</text>
<polyline fill="none" stroke="black" points="125.967,79 252.033,79 "/>
<polyline fill="none" stroke="black" points="125.967,103 252.033,103 "/>
<text text-anchor="start" x="133.967" y="118.2" font-family="Times,serif" font-size="14.00">_layout</text>
</g>
</g>
</svg>
