<?xml version="1.0" encoding="UTF-8" standalone="no"?>
<!DOCTYPE svg PUBLIC "-//W3C//DTD SVG 1.1//EN"
 "http://www.w3.org/Graphics/SVG/1.1/DTD/svg11.dtd">
<!-- Generated by graphviz version 2.38.0 (20140413.2041)
 -->
<!-- Title: models_diagram Pages: 1 -->
<svg width="366pt" height="246pt"
 viewBox="0.00 0.00 366.19 246.00" xmlns="http://www.w3.org/2000/svg" xmlns:xlink="http://www.w3.org/1999/xlink">
<g id="graph0" class="graph" transform="scale(1 1) rotate(0) translate(4 242)">
<title>models_diagram</title>
<polygon fill="none" stroke="none" points="-4,4 -4,-242 362.193,-242 362.193,4 -4,4"/>
<!-- _diagram_info -->
<g id="node1" class="node"><title>_diagram_info</title>
<text text-anchor="start" x="8" y="-209.6" font-family="Times,serif" font-size="13.00">Models diagram</text>
<text text-anchor="start" x="8" y="-196.6" font-family="Times,serif" font-size="13.00">Date: Jul 23 2015 &#45; 18:33</text>
<text text-anchor="start" x="8" y="-183.6" font-family="Times,serif" font-size="13.00">Migration version: 20150721010959</text>
<text text-anchor="start" x="8" y="-170.6" font-family="Times,serif" font-size="13.00">Generated by RailRoady 1.3.1</text>
<text text-anchor="start" x="8" y="-157.6" font-family="Times,serif" font-size="13.00">http://railroady.prestonlee.com</text>
</g>
<!-- Comment -->
<g id="node2" class="node"><title>Comment</title>
<path fill="none" stroke="black" d="M237.182,-0.5C237.182,-0.5 346.193,-0.5 346.193,-0.5 352.193,-0.5 358.193,-6.5 358.193,-12.5 358.193,-12.5 358.193,-88.5 358.193,-88.5 358.193,-94.5 352.193,-100.5 346.193,-100.5 346.193,-100.5 237.182,-100.5 237.182,-100.5 231.182,-100.5 225.182,-94.5 225.182,-88.5 225.182,-88.5 225.182,-12.5 225.182,-12.5 225.182,-6.5 231.182,-0.5 237.182,-0.5"/>
<text text-anchor="middle" x="291.688" y="-85.3" font-family="Times,serif" font-size="14.00">Comment</text>
<polyline fill="none" stroke="black" points="225.182,-78.5 358.193,-78.5 "/>
<text text-anchor="start" x="233.182" y="-63.3" font-family="Times,serif" font-size="14.00">id :integer</text>
<text text-anchor="start" x="233.182" y="-49.3" font-family="Times,serif" font-size="14.00">body :text</text>
<text text-anchor="start" x="233.182" y="-35.3" font-family="Times,serif" font-size="14.00">post_id :integer</text>
<text text-anchor="start" x="233.182" y="-21.3" font-family="Times,serif" font-size="14.00">created_at :datetime</text>
<text text-anchor="start" x="233.182" y="-7.3" font-family="Times,serif" font-size="14.00">updated_at :datetime</text>
</g>
<!-- Post -->
<g id="node3" class="node"><title>Post</title>
<path fill="none" stroke="black" d="M237.182,-137.5C237.182,-137.5 346.193,-137.5 346.193,-137.5 352.193,-137.5 358.193,-143.5 358.193,-149.5 358.193,-149.5 358.193,-225.5 358.193,-225.5 358.193,-231.5 352.193,-237.5 346.193,-237.5 346.193,-237.5 237.182,-237.5 237.182,-237.5 231.182,-237.5 225.182,-231.5 225.182,-225.5 225.182,-225.5 225.182,-149.5 225.182,-149.5 225.182,-143.5 231.182,-137.5 237.182,-137.5"/>
<text text-anchor="middle" x="291.688" y="-222.3" font-family="Times,serif" font-size="14.00">Post</text>
<polyline fill="none" stroke="black" points="225.182,-215.5 358.193,-215.5 "/>
<text text-anchor="start" x="233.182" y="-200.3" font-family="Times,serif" font-size="14.00">id :integer</text>
<text text-anchor="start" x="233.182" y="-186.3" font-family="Times,serif" font-size="14.00">title :string</text>
<text text-anchor="start" x="233.182" y="-172.3" font-family="Times,serif" font-size="14.00">body :text</text>
<text text-anchor="start" x="233.182" y="-158.3" font-family="Times,serif" font-size="14.00">created_at :datetime</text>
<text text-anchor="start" x="233.182" y="-144.3" font-family="Times,serif" font-size="14.00">updated_at :datetime</text>
</g>
<!-- Post&#45;&gt;Comment -->
<g id="edge1" class="edge"><title>Post&#45;&gt;Comment</title>
<path fill="none" stroke="#41d6e7" d="M291.688,-129.176C291.688,-123.13 291.688,-116.973 291.688,-110.904"/>
<ellipse fill="none" stroke="#41d6e7" cx="291.688" cy="-133.38" rx="4" ry="4"/>
<polygon fill="#41d6e7" stroke="#41d6e7" points="291.688,-110.81 296.188,-100.81 291.688,-105.81 291.688,-100.81 291.688,-100.81 291.688,-100.81 291.688,-105.81 287.188,-100.81 291.688,-110.81 291.688,-110.81"/>
</g>
</g>
</svg>
